<?xml version="1.0" encoding="utf-8"?>
<!-- Generator: Adobe Illustrator 26.2.1, SVG Export Plug-In . SVG Version: 6.00 Build 0)  -->
<svg version="1.1" id="Layer_1" xmlns="http://www.w3.org/2000/svg" xmlns:xlink="http://www.w3.org/1999/xlink" x="0px" y="0px"
	 viewBox="0 0 430.7 104.1" enable-background="new 0 0 430.7 104.1" xml:space="preserve">
<g>
	<path fill="#4D4D4D" d="M34.7,34.2h16c5.3,0,9.3,1.3,12.2,4c2.9,2.6,4.3,6.1,4.3,10.5s-1.4,7.9-4.3,10.6C60,62,56,63.4,50.7,63.4
		h-9.5v20.1h-6.5V34.2z M50.7,58.1c3.7,0,6.3-0.9,7.8-2.7s2.2-4,2.2-6.7c0-2.6-0.7-4.8-2.2-6.6s-4.1-2.6-7.8-2.6h-9.5v18.6H50.7z
		 M50.6,60.7l6.4-1l12.8,23.7h-7.2L50.6,60.7z"/>
	<path fill="#4D4D4D" d="M74.1,65.1c0-5.4,1.5-9.7,4.4-13.1c2.9-3.4,6.8-5.1,11.7-5.1c4.9,0,8.6,1.6,11.2,4.8s3.9,7.5,3.9,12.9v2.5
		H77.9v-5h21v-0.8c0-2.6-0.7-4.8-2.2-6.6S93.1,52,90.4,52c-3.3,0-5.8,1.3-7.5,3.8c-1.6,2.5-2.5,5.6-2.5,9.3v1.1
		c0,3.7,0.9,6.8,2.6,9.3c1.7,2.5,4.4,3.8,8.1,3.8c2.3,0,4.2-0.5,5.8-1.5c1.6-1,2.9-2.2,4-3.5l4.1,3.2c-1.1,1.7-2.9,3.3-5.2,4.7
		c-2.4,1.5-5.2,2.2-8.6,2.2c-5.5,0-9.7-1.7-12.7-5.1c-2.9-3.4-4.4-7.8-4.4-13.1C74.1,66.2,74.1,65.1,74.1,65.1z"/>
	<path fill="#4D4D4D" d="M110.8,65.1c0-5.4,1.5-9.7,4.4-13.1c2.9-3.4,6.9-5.1,12-5.1c4.7,0,8.3,1.3,10.8,3.8s3.7,5.4,3.7,8.6v0.2
		h-6.1v-0.2c0-1.9-0.7-3.6-2-5.1c-1.3-1.5-3.5-2.2-6.4-2.2c-3.4,0-5.9,1.3-7.6,3.8c-1.6,2.5-2.4,5.6-2.4,9.3v1.1
		c0,3.7,0.8,6.8,2.4,9.3s4.1,3.8,7.6,3.8c2.9,0,5.1-0.7,6.4-2.2c1.3-1.5,2-3.2,2-5.1v-0.2h6.1V72c0,3.2-1.2,6-3.7,8.6
		s-6,3.8-10.8,3.8c-5.1,0-9.1-1.7-12-5.1s-4.4-7.8-4.4-13.1V65.1z"/>
	<path fill="#4D4D4D" d="M145.7,92.1c0.6,0.2,1.2,0.3,2,0.4c0.7,0.1,1.4,0.2,2.1,0.2c1.6,0,2.9-0.6,4.1-1.8c1.2-1.2,2.4-3.7,3.7-7.7
		l0,0l-13.2-35.4h6.1l8.4,23.4c0.3,0.9,0.6,1.7,0.8,2.5c0.2,0.8,0.5,1.5,0.6,2.2h0.2c0.2-0.7,0.4-1.4,0.7-2.2
		c0.3-0.8,0.5-1.6,0.8-2.5l7.8-23.4h5.9l-14.3,40.3c-1.1,3.2-2.6,5.6-4.5,7.4s-4.1,2.6-6.8,2.6c-0.9,0-1.7-0.1-2.4-0.2
		c-0.7-0.1-1.4-0.3-2-0.5C145.7,97.4,145.7,92.1,145.7,92.1z"/>
	<path fill="#4D4D4D" d="M178.3,65.1c0-5.4,1.5-9.7,4.4-13.1c2.9-3.4,6.9-5.1,12-5.1c4.7,0,8.3,1.3,10.8,3.8s3.7,5.4,3.7,8.6v0.2
		h-6.1v-0.2c0-1.9-0.7-3.6-2-5.1s-3.5-2.2-6.4-2.2c-3.4,0-5.9,1.3-7.6,3.8c-1.6,2.5-2.4,5.6-2.4,9.3v1.1c0,3.7,0.8,6.8,2.4,9.3
		c1.6,2.5,4.1,3.8,7.6,3.8c2.9,0,5.1-0.7,6.4-2.2c1.3-1.5,2-3.2,2-5.1v-0.2h6.1V72c0,3.2-1.2,6-3.7,8.6s-6,3.8-10.8,3.8
		c-5.1,0-9.1-1.7-12-5.1s-4.4-7.8-4.4-13.1V65.1z"/>
	<path fill="#4D4D4D" d="M216.7,31.5h6.3v51.9h-6.3V31.5z"/>
	<path fill="#4D4D4D" d="M231.2,65.1c0-5.4,1.5-9.7,4.4-13.1c2.9-3.4,6.8-5.1,11.7-5.1s8.6,1.6,11.2,4.8c2.6,3.2,3.9,7.5,3.9,12.9
		v2.5h-27.3v-5h21v-0.8c0-2.6-0.7-4.8-2.2-6.6s-3.6-2.7-6.3-2.7c-3.3,0-5.8,1.3-7.5,3.8c-1.6,2.5-2.5,5.6-2.5,9.3v1.1
		c0,3.7,0.9,6.8,2.6,9.3c1.7,2.5,4.4,3.8,8.1,3.8c2.3,0,4.2-0.5,5.8-1.5s2.9-2.2,4-3.5l4.1,3.2c-1.1,1.7-2.9,3.3-5.2,4.7
		c-2.4,1.5-5.2,2.2-8.6,2.2c-5.5,0-9.7-1.7-12.7-5.1c-2.9-3.4-4.4-7.8-4.4-13.1v-1.1H231.2z"/>
</g>
<g>
	<path fill="#4CAF50" d="M285,83.4l-6.6-1.6v-40h-2.9l-0.6-1.4h4.3c-4-4.5-5.9-8.9-5.9-13.2c0-2.7,0.8-5.1,2.5-7.4
		c1.7-2.2,4.3-4,7.8-5.3c1.9-0.7,4-1,6.3-1c4.1,0,8.6,1,13.6,3c5,1.9,8.9,2.8,11.9,2.8c1.1,0,2-0.1,2.8-0.3c2.1-0.7,3.2-2.1,3.2-4.2
		l2-0.3c0,1.5-0.3,2.9-0.9,4.2c-1.1,2.3-2.8,4.3-5.2,6c-2.4,1.7-5.3,2.5-8.5,2.5c-2.3,0-4.3-0.3-6.3-0.8c-1.9-0.6-3.4-1-4.4-1.5
		c-1-0.4-2.1-0.8-3.2-1.1l-2.1-0.7c-2.1-0.7-3.9-1.1-5.5-1.1c-2.8,0-4.9,0.8-6.4,2.5s-2.3,3.7-2.3,6.1c0,3.3,1.4,6.6,4.1,9.8h5.5
		l0.6,1.4h-3.5v41.6H285z"/>
	<path fill="#4CAF50" d="M323.6,83.4l-4.7-1.1c-3.6-0.7-7.6-1.9-12-3.6s-8.6-4.3-12.7-7.8c-1.3-1.2-2.5-2.7-3.4-4.4
		c-0.9-1.8-1.3-3.6-1.3-5.4c0-0.8,0.1-1.5,0.3-2.3c0.6-2.3,1.8-4.3,3.6-5.8c1.7-1.6,3.7-3,5.8-4.2s4.4-2.4,6.7-3.5l2.1-1.1
		c1.7-0.9,3.5-1.7,5.3-2.4h-25.4l-0.6-1.4h39.2l0.6,1.4h-3.5V83.4z M317,79.7V49.8c-0.6,0.4-1.2,0.8-1.8,1.2
		c-2.4,1.7-4.9,3.3-7.4,4.9c-3.2,1.7-6,3.9-8.3,6.6c-0.9,1.3-1.3,2.6-1.3,4s0.4,2.7,1.3,4C302.6,74.6,308.5,77.6,317,79.7z"/>
	<path fill="#4CAF50" d="M362.4,83.4l-6.6-1.5V69.3c-0.5-4.8-2-8.6-4.5-11.3s-5.1-4-7.7-4c-2.4,0.1-4.5,0.9-6.4,2.5
		c-1.7,1.2-2.9,2.9-3.5,4.9c-0.4,1.2-0.6,2.4-0.6,3.6c0,1.5,0.2,2.6,0.7,3.5c0.6,1.1,1.4,1.7,2.4,1.7c0.9,0,2.1-0.6,3.5-1.9
		c1.8-1.5,2.7-3.1,2.7-4.6c0-0.5,0.3-0.7,0.8-0.7l0.6,0.1c0.8,0.1,1.7,0.7,2.8,1.6l0.3,0.3c1.2,1,2.3,2.1,3.2,3.4
		c0.8,1,1.2,1.9,1.2,2.6c0,1.8-0.8,3.4-2.3,4.8c-1.3,1.2-2.8,2.2-4.4,3c-0.6,0.2-1.1,0.3-1.7,0.3c-1.5,0-3-0.4-4.4-1.3
		c-2.5-1.4-4.8-3.3-6.8-5.5c-2.4-3-3.7-6.1-3.7-9.4c0-2.5,0.7-4.9,2-7.1c1.3-2.2,3.2-3.8,5.7-5c1.5-0.7,3.1-1,4.8-1
		c1.2,0,2.3,0.2,3.5,0.5c5.1,1.6,9,4.7,11.8,9.3V41.8h-29.3l-0.6-1.4h39.4l0.6,1.4h-3.5V83.4z"/>
</g>
<path fill="#4FC646" d="M353,24.6c-3.1,1.3-5.3,3.1-6.4,4.1c-0.5,0.5-1.3,0.5-1.8,0l0,0c-0.5-0.5-0.6-1.3-0.1-1.9
	c3.5-3.8,10.4-11.1,27.2-11.9c20.3-1,24.8,14.1,42.9,10.5c0,0-8.8,0.7-25.7-11.1c-13.4-9.4-28.8-2-29.1-1.9
	c0.1-0.2,8.3-12.4,24.4-12.4c17.9,0,25.6,22.9,46.3,20.2c0,0-13,23.3-35.7,23.3c-15,0-23.5-10.3-31-17.2
	C360.9,23.8,356.7,23,353,24.6z"/>
<rect y="6.1" fill="none" width="34.7" height="98"/>
</svg>
